<svg version="1.1" id="Layer_1" xmlns="http://www.w3.org/2000/svg" xmlns:xlink="http://www.w3.org/1999/xlink" x="0px" y="0px"
	 width="100%" viewBox="0 0 198 196" enable-background="new 0 0 198 196" xml:space="preserve">
<path fill="#FEFEFE" opacity="1.000000" stroke="none" 
	d="
M1.000000,48.000000 
	C1.000000,32.349396 1.000000,16.698795 1.000000,1.024096 
	C66.916252,1.024096 132.832520,1.024096 199.000000,1.024096 
	C199.000000,61.353996 199.000000,121.708336 198.531342,182.531769 
	C172.685394,182.993576 147.308105,182.986298 121.928085,182.562347 
	C121.556786,177.767441 121.188210,173.389175 121.167046,168.887177 
	C163.604279,148.295563 188.781448,117.330193 183.400681,67.195625 
	C183.118530,66.959618 181.597107,66.291557 181.110565,65.173241 
	C179.219009,60.825577 178.404633,55.818878 175.788101,52.023495 
	C172.234421,46.868767 167.395676,42.599964 163.078033,37.580879 
	C162.561157,33.699123 161.473343,31.052822 156.765808,33.038017 
	C140.366104,24.020369 123.276718,20.473324 104.810341,22.721024 
	C103.419060,20.892574 102.225677,19.341181 100.878571,17.508385 
	C99.708832,16.115446 98.692818,15.003913 97.578979,13.648888 
	C96.994812,13.245379 96.508476,13.085363 96.012573,12.959330 
	C96.003014,12.993312 96.060028,12.951661 95.916122,12.625437 
	C89.215073,8.468774 82.619560,7.526231 75.746376,12.289730 
	C68.224655,17.404087 63.748745,23.723026 64.675537,33.037544 
	C57.202984,37.391258 50.092270,41.709076 42.678268,45.830132 
	C39.340851,34.303795 25.470421,28.548603 13.708344,33.460430 
	C6.917824,36.296143 4.358163,42.395752 1.000000,48.000000 
z"/>
<path fill="#FEFEFE" opacity="1.000000" stroke="none" 
	d="
M1.000000,184.000000 
	C1.000000,141.979111 1.000000,99.958214 1.306614,57.654076 
	C4.064870,67.108383 10.711504,72.528198 20.001207,75.612564 
	C19.701166,77.260399 19.593462,78.617401 19.062210,79.781036 
	C13.684191,91.560852 10.810438,103.820030 12.024993,116.824249 
	C12.887434,126.058388 14.785224,135.023651 19.904545,143.393616 
	C19.512608,152.287308 18.211147,160.876053 22.129253,169.316956 
	C22.770800,170.098099 23.362810,170.589920 23.974157,171.051697 
	C23.993496,171.021622 23.922018,171.020081 24.008947,171.273071 
	C24.390987,171.710068 24.686098,171.894073 24.980141,172.042297 
	C24.979073,172.006516 24.921034,172.048462 25.085209,172.374146 
	C29.223320,175.527176 33.265110,176.101227 37.682102,172.874771 
	C39.985100,171.124741 42.021564,169.566086 44.369225,168.129669 
	C46.341831,168.865631 48.003242,169.479340 49.725105,170.525681 
	C49.556023,174.961426 49.326481,178.964554 48.667877,182.985565 
	C45.134312,183.335815 42.032059,183.928101 38.924919,183.954956 
	C26.284094,184.064240 13.641770,184.000168 1.000000,184.000000 
z"/>
<path fill="#F5F6F7" opacity="1.000000" stroke="none" 
	d="
M1.000000,184.437500 
	C13.641770,184.000168 26.284094,184.064240 38.924919,183.954956 
	C42.032059,183.928101 45.134312,183.335815 49.128159,183.030594 
	C66.855370,183.057709 83.693237,183.057709 100.385246,183.057709 
	C100.935013,179.954971 101.402054,177.319077 102.202698,174.888657 
	C103.037811,176.087967 103.868378,177.045486 103.982819,178.082077 
	C104.435020,182.177948 106.516479,183.567810 110.586632,183.140778 
	C114.332443,182.747757 118.146706,183.007080 121.930809,182.979019 
	C147.308105,182.986298 172.685394,182.993576 198.531342,183.000427 
	C199.000000,185.370560 199.000000,187.741104 198.531342,190.555832 
	C132.375122,191.000000 66.687561,191.000000 1.000000,191.000000 
	C1.000000,188.958328 1.000000,186.916672 1.000000,184.437500 
z"/>
<path fill="#FD836E" opacity="1.000000" stroke="none" 
	d="
M19.996960,75.231987 
	C10.711504,72.528198 4.064870,67.108383 1.306614,57.185417 
	C1.000000,54.299988 1.000000,51.599972 1.000000,48.449982 
	C4.358163,42.395752 6.917824,36.296143 13.708344,33.460430 
	C25.470421,28.548603 39.340851,34.303795 42.715782,46.245888 
	C42.954853,51.262562 42.853119,55.666718 42.578686,60.196754 
	C42.206886,60.542820 42.091820,60.800564 42.066658,61.053463 
	C42.072536,61.011070 42.153988,61.037384 41.850327,61.212891 
	C41.380657,62.282784 41.214645,63.177170 41.030239,64.039581 
	C41.011845,64.007599 41.083717,64.024292 40.838509,64.118973 
	C40.420002,64.508614 40.246704,64.803558 40.063675,65.050400 
	C40.053951,65.002296 40.120296,65.074631 39.779129,65.202255 
	C39.397461,67.720444 39.509064,70.127411 39.253738,72.494812 
	C39.121590,73.720161 38.338989,74.875351 37.535313,75.907257 
	C31.586706,72.021202 25.784204,73.879112 19.996960,75.231987 
M28.455362,49.955650 
	C29.501490,48.881905 30.817581,47.955616 31.509714,46.688507 
	C32.080116,45.644253 31.911333,44.196236 32.070129,42.927151 
	C30.930977,43.258121 29.551706,43.291477 28.699955,43.978672 
	C26.572441,45.695148 24.684471,47.708530 22.313072,49.972519 
	C20.454552,47.943810 19.157518,46.158203 17.490768,44.840111 
	C16.400391,43.977821 14.774364,43.792870 13.388259,43.304535 
	C13.846893,44.699932 13.940401,46.409348 14.825245,47.438190 
	C19.491564,52.863895 19.560785,52.804340 14.854039,58.213451 
	C14.526667,58.589680 14.034406,58.917336 13.905704,59.352440 
	C13.607066,60.362030 13.484100,61.423584 13.289923,62.464073 
	C14.449493,62.286449 16.074749,62.526943 16.680613,61.852165 
	C18.441210,59.891296 19.793280,57.563625 21.305603,55.379841 
	C22.129366,55.493675 22.953131,55.607510 23.776896,55.721344 
	C25.526777,57.926834 27.154154,60.251068 29.104015,62.262722 
	C29.661638,62.838013 31.153496,62.507763 32.216972,62.592739 
	C32.116199,61.569836 32.365891,60.290558 31.843321,59.576218 
	C30.675388,57.979683 29.223993,56.544083 27.702099,55.264034 
	C25.541447,53.446735 26.073542,51.966927 28.455362,49.955650 
z"/>
<path fill="#F1F1F1" opacity="1.000000" stroke="none" 
	d="
M1.000000,191.499481 
	C66.687561,191.000000 132.375122,191.000000 198.531342,191.000000 
	C199.000000,192.995239 199.000000,194.990479 199.000000,196.989288 
	C133.000000,196.992859 67.000000,196.992859 1.000000,196.989944 
	C1.000000,195.324341 1.000000,193.661636 1.000000,191.499481 
z"/>
<path fill="#E4E1F8" opacity="1.000000" stroke="none" 
	d="
M42.751389,60.070877 
	C42.853119,55.666718 42.954853,51.262562 43.019073,46.442650 
	C50.092270,41.709076 57.202984,37.391258 64.938370,33.211666 
	C65.937210,39.396267 69.641701,43.589989 73.869347,47.205223 
	C76.186569,49.186783 79.205994,51.294868 82.054886,51.523228 
	C89.568314,52.125484 96.090019,49.305363 101.277985,43.196793 
	C101.708725,42.702747 101.879547,42.356750 102.024139,42.006844 
	C101.997902,42.002934 102.029724,42.045380 102.298615,41.894985 
	C102.728683,41.166725 102.889870,40.588856 103.024536,40.007500 
	C102.998024,40.004013 103.034248,40.043381 103.325241,39.919033 
	C103.764992,39.196800 103.913742,38.598911 104.033325,37.997833 
	C104.004158,37.994640 104.024826,38.049549 104.320343,37.801651 
	C104.746651,32.701862 104.877449,27.849972 105.008247,22.998079 
	C123.276718,20.473324 140.366104,24.020369 156.774536,33.329140 
	C157.743378,34.411018 158.342377,35.142483 158.596924,35.936081 
	C149.134842,41.703732 140.017227,47.409248 130.502869,53.080639 
	C126.388016,53.703789 122.671188,54.368477 118.951401,55.016193 
	C115.464531,55.623356 112.678146,57.060219 111.560532,61.050766 
	C106.147591,67.246750 107.149994,72.465332 114.302559,75.953156 
	C115.015800,76.432991 115.477341,76.770432 115.959381,77.069458 
	C115.979881,77.031036 115.896301,77.055542 116.038712,77.346825 
	C116.773773,77.892677 117.366432,78.147255 118.092537,78.574921 
	C118.225990,78.748016 118.637207,78.896034 118.637207,78.896034 
	C118.637207,78.896034 119.071228,78.844681 119.400772,78.912247 
	C120.537567,79.306465 121.344818,79.633118 122.209503,80.304398 
	C125.051117,86.255783 127.910065,91.827080 130.590988,97.482765 
	C132.160843,100.794533 134.259964,101.281761 137.322891,99.503265 
	C141.764603,96.924164 141.907333,95.356583 138.009979,87.545540 
	C136.694641,83.494629 135.446381,79.796143 134.645264,76.092926 
	C145.827866,75.081062 155.432831,79.023651 165.277710,83.181305 
	C166.663300,84.435623 167.817368,85.438087 168.971436,86.440552 
	C169.650528,85.137245 170.470886,83.883080 170.948593,82.509727 
	C171.183975,81.833099 170.785828,80.936119 170.621033,79.772018 
	C170.024811,76.924393 169.481918,74.443611 168.956451,71.556519 
	C169.570267,69.197296 169.889557,67.100891 170.813126,65.317398 
	C174.042358,59.081429 171.668427,53.098389 164.994202,50.679260 
	C164.365067,46.138069 163.736572,42.044636 163.108093,37.951199 
	C167.395676,42.599964 172.234421,46.868767 175.788101,52.023495 
	C178.404633,55.818878 179.219009,60.825577 181.110565,65.173241 
	C181.597107,66.291557 183.118530,66.959618 183.400681,67.195625 
	C188.781448,117.330193 163.604279,148.295563 120.930756,168.587799 
	C119.692299,164.231720 119.037544,160.051285 118.587799,155.583405 
	C119.128067,153.719589 119.978058,152.044785 119.699051,150.585892 
	C118.955528,146.697998 117.726181,142.903030 116.902153,138.754654 
	C122.787102,128.398422 120.727165,118.911873 112.481567,111.084297 
	C108.291702,107.106857 104.657753,101.978821 102.405060,96.677231 
	C99.919868,90.828461 99.154724,84.214493 97.907494,77.881218 
	C95.311966,64.701599 86.749535,57.027634 74.691864,58.084782 
	C70.000542,58.496090 65.166794,59.791317 60.912834,61.783455 
	C58.166348,63.069649 55.661301,66.016006 54.297329,68.824982 
	C52.524437,72.476074 51.886330,76.704742 50.946278,80.728386 
	C48.727749,90.224174 46.820374,99.797310 44.395657,109.238617 
	C42.801533,115.445770 41.457134,121.526833 43.316227,128.171539 
	C40.770061,131.685333 38.396107,134.875473 36.020485,137.631744 
	C36.009010,131.468735 36.209347,125.728394 35.904114,120.015060 
	C35.742306,116.986374 34.702400,114.004593 34.045948,110.621246 
	C33.618141,108.540871 33.203278,106.840897 32.732040,104.759888 
	C30.472702,100.171120 32.296818,94.091774 26.178759,90.062347 
	C26.178759,92.741707 25.704788,94.293304 26.258354,95.250916 
	C29.109167,100.182480 24.546034,102.540749 22.633919,105.997147 
	C22.168613,106.311020 21.987143,106.565033 21.574661,106.785492 
	C20.553576,106.808815 19.580597,106.661041 19.168335,107.073593 
	C16.039604,110.204521 15.761113,115.088844 19.632643,120.650253 
	C22.787693,125.182426 22.131496,129.569397 21.355612,134.265381 
	C20.873322,137.184387 20.362625,140.098694 19.864677,143.015121 
	C14.785224,135.023651 12.887434,126.058388 12.024993,116.824249 
	C10.810438,103.820030 13.684191,91.560852 19.062210,79.781036 
	C19.593462,78.617401 19.701166,77.260399 20.001207,75.612564 
	C25.784204,73.879112 31.586706,72.021202 37.804432,76.180450 
	C40.708302,77.460007 42.363422,77.786591 41.466091,74.192490 
	C40.725483,71.226105 40.547562,68.119240 40.120296,65.074631 
	C40.120296,65.074631 40.053951,65.002296 40.348576,65.025772 
	C40.790039,64.707596 40.936878,64.365944 41.083717,64.024292 
	C41.083717,64.024292 41.011845,64.007599 41.310532,63.836338 
	C41.790810,62.789181 41.972401,61.913280 42.153992,61.037384 
	C42.153988,61.037384 42.072536,61.011070 42.288406,60.980549 
	C42.695358,60.687515 42.777729,60.394466 42.751389,60.070877 
M135.393127,130.701385 
	C136.033218,131.460922 136.623352,132.270142 137.321472,132.971970 
	C142.081512,137.757339 147.907104,138.549667 153.597336,135.217926 
	C158.981476,132.065414 161.524948,125.291084 159.584000,119.272919 
	C157.657959,113.301086 152.223541,109.607292 145.891678,109.966225 
	C136.352020,110.507011 131.442001,119.551430 135.393127,130.701385 
z"/>
<path fill="#B1A5EB" opacity="1.000000" stroke="none" 
	d="
M101.018066,43.344837 
	C96.090019,49.305363 89.568314,52.125484 82.054886,51.523228 
	C79.205994,51.294868 76.186569,49.186783 73.869347,47.205223 
	C69.641701,43.589989 65.937210,39.396267 65.300201,33.175774 
	C63.748745,23.723026 68.224655,17.404087 76.177612,12.286868 
	C83.339317,10.041522 89.708313,11.316135 96.060028,12.951661 
	C96.060028,12.951661 96.003014,12.993312 96.104828,13.213636 
	C96.696693,13.586768 97.186745,13.739574 97.676804,13.892380 
	C98.692818,15.003913 99.708832,16.115446 100.880013,17.898529 
	C105.161575,24.582876 103.782883,31.440578 104.024826,38.049549 
	C104.024826,38.049549 104.004158,37.994640 103.750778,38.136883 
	C103.343010,38.867210 103.188629,39.455296 103.034248,40.043381 
	C103.034248,40.043381 102.998024,40.004013 102.746353,40.147995 
	C102.339699,40.876446 102.184715,41.460915 102.029724,42.045380 
	C102.029724,42.045380 101.997902,42.002934 101.742966,42.122570 
	C101.331375,42.609749 101.174721,42.977291 101.018066,43.344837 
M87.938583,25.536205 
	C86.506989,27.708046 84.797974,29.757515 83.762833,32.104233 
	C83.258186,33.248291 84.010689,34.946880 84.194145,36.394459 
	C85.134125,35.758408 86.234894,35.268742 86.977531,34.453022 
	C88.182350,33.129639 89.140579,31.583597 90.223801,30.147312 
	C93.301613,26.066334 93.193939,22.187620 89.918800,19.637144 
	C86.354881,16.861784 81.310165,17.621361 78.714165,21.681444 
	C77.955078,22.868628 78.346687,24.791561 78.210884,26.377268 
	C79.500282,25.789789 81.225845,25.541679 81.996811,24.550819 
	C84.256546,21.646576 86.045349,21.298550 87.938583,25.536205 
z"/>
<path fill="#FBB89C" opacity="1.000000" stroke="none" 
	d="
M118.382790,155.870865 
	C119.037544,160.051285 119.692299,164.231720 120.583344,168.711533 
	C121.188210,173.389175 121.556786,177.767441 121.928085,182.562347 
	C118.146706,183.007080 114.332443,182.747757 110.586632,183.140778 
	C106.516479,183.567810 104.435020,182.177948 103.982819,178.082077 
	C103.868378,177.045486 103.037811,176.087967 102.101944,174.508698 
	C101.403229,170.511856 100.883690,167.090240 101.019119,163.694748 
	C101.063820,162.573868 102.598068,160.972000 103.796768,160.532516 
	C108.584877,158.777069 113.509003,157.392609 118.382790,155.870865 
z"/>
<path fill="#ADA2E8" opacity="1.000000" stroke="none" 
	d="
M168.939011,71.962822 
	C169.481918,74.443611 170.024811,76.924393 170.288818,79.825790 
	C169.385559,81.696053 168.761215,83.145706 167.762314,85.465004 
	C166.336426,79.595100 165.158493,74.745918 163.985901,69.703918 
	C163.991257,69.511101 164.009125,69.125717 164.013474,68.669670 
	C163.007217,62.804562 161.996613,57.395500 160.993988,51.992630 
	C161.001968,51.998817 161.004715,52.018852 161.008484,51.572433 
	C160.340393,47.074448 159.668549,43.022877 158.996796,38.585243 
	C158.978378,37.424103 158.959885,36.649025 158.941391,35.873947 
	C158.342377,35.142483 157.743378,34.411018 157.135651,33.388432 
	C161.473343,31.052822 162.561157,33.699123 163.078033,37.580879 
	C163.736572,42.044636 164.365067,46.138069 165.001587,51.089348 
	C165.708801,56.732132 166.316010,61.533218 167.151871,66.294167 
	C167.491516,68.228676 168.328384,70.075890 168.939011,71.962822 
z"/>
<path fill="#8D86CB" opacity="1.000000" stroke="none" 
	d="
M104.320343,37.801651 
	C103.782883,31.440578 105.161575,24.582876 101.033737,18.179932 
	C102.225677,19.341181 103.419060,20.892574 104.810341,22.721024 
	C104.877449,27.849972 104.746651,32.701862 104.320343,37.801651 
z"/>
<path fill="#928ACD" opacity="1.000000" stroke="none" 
	d="
M95.916122,12.625437 
	C89.708313,11.316135 83.339317,10.041522 76.382843,12.033005 
	C82.619560,7.526231 89.215073,8.468774 95.916122,12.625437 
z"/>
<path fill="#928ACD" opacity="1.000000" stroke="none" 
	d="
M97.578979,13.648888 
	C97.186745,13.739574 96.696693,13.586768 96.114388,13.179654 
	C96.508476,13.085363 96.994812,13.245379 97.578979,13.648888 
z"/>
<path fill="#365FBD" opacity="1.000000" stroke="none" 
	d="
M118.587799,155.583405 
	C113.509003,157.392609 108.584877,158.777069 103.796768,160.532516 
	C102.598068,160.972000 101.063820,162.573868 101.019119,163.694748 
	C100.883690,167.090240 101.403229,170.511856 101.768341,174.303253 
	C101.402054,177.319077 100.935013,179.954971 100.385246,183.057709 
	C83.693237,183.057709 66.855370,183.057709 49.557220,183.012695 
	C49.326481,178.964554 49.556023,174.961426 49.828377,170.115326 
	C49.376862,166.383987 48.882526,163.495636 48.331944,160.230560 
	C46.896664,157.839905 45.966816,154.933136 44.057755,153.972641 
	C37.237015,150.540985 36.249557,144.591736 36.022156,138.065628 
	C38.396107,134.875473 40.770061,131.685333 43.522934,127.946556 
	C48.529926,122.316093 54.057217,118.905190 61.038589,118.561783 
	C62.943153,129.097992 68.400764,133.239365 77.087959,130.753998 
	C83.807350,128.831604 88.332031,124.060867 92.234955,118.213379 
	C98.953392,119.820503 105.100327,121.952232 109.190979,127.430138 
	C111.946144,131.119659 114.207626,135.177856 116.689972,139.071121 
	C117.726181,142.903030 118.955528,146.697998 119.699051,150.585892 
	C119.978058,152.044785 119.128067,153.719589 118.587799,155.583405 
z"/>
<path fill="#FBB69A" opacity="1.000000" stroke="none" 
	d="
M36.020485,137.631744 
	C36.249557,144.591736 37.237015,150.540985 44.057755,153.972641 
	C45.966816,154.933136 46.896664,157.839905 48.132599,160.556519 
	C46.679016,163.508575 45.368523,165.758011 44.058029,168.007431 
	C42.021564,169.566086 39.985100,171.124741 37.193848,172.849518 
	C32.599720,172.693253 28.760378,172.370850 24.921036,172.048462 
	C24.921034,172.048462 24.979073,172.006516 24.881607,171.797638 
	C24.496765,171.399216 24.209393,171.209641 23.922020,171.020081 
	C23.922018,171.020081 23.993496,171.021622 23.964140,170.725372 
	C23.316429,169.961975 22.698074,169.494812 22.079720,169.027664 
	C18.211147,160.876053 19.512608,152.287308 19.904545,143.393616 
	C20.362625,140.098694 20.873322,137.184387 21.355612,134.265381 
	C22.131496,129.569397 22.787693,125.182426 19.632643,120.650253 
	C15.761113,115.088844 16.039604,110.204521 19.168335,107.073593 
	C19.580597,106.661041 20.553576,106.808815 21.725166,107.099518 
	C23.846518,108.357155 25.428713,109.502380 27.193054,109.994217 
	C29.403505,110.610413 31.763466,110.690285 34.058895,111.001648 
	C34.702400,114.004593 35.742306,116.986374 35.904114,120.015060 
	C36.209347,125.728394 36.009010,131.468735 36.020485,137.631744 
M26.614197,112.466614 
	C26.840355,112.524567 27.066513,112.582520 27.292669,112.640480 
	C27.146687,112.497780 27.000704,112.355087 26.614197,112.466614 
z"/>
<path fill="#D3D4EF" opacity="1.000000" stroke="none" 
	d="
M44.369225,168.129669 
	C45.368523,165.758011 46.679016,163.508575 48.188850,160.933212 
	C48.882526,163.495636 49.376862,166.383987 49.767925,169.682709 
	C48.003242,169.479340 46.341831,168.865631 44.369225,168.129669 
z"/>
<path fill="#EA9C85" opacity="1.000000" stroke="none" 
	d="
M25.085209,172.374130 
	C28.760378,172.370850 32.599720,172.693253 36.927315,173.040894 
	C33.265110,176.101227 29.223320,175.527176 25.085209,172.374130 
z"/>
<path fill="#EA9C85" opacity="1.000000" stroke="none" 
	d="
M22.129253,169.316956 
	C22.698074,169.494812 23.316429,169.961975 23.944801,170.755432 
	C23.362810,170.589920 22.770800,170.098099 22.129253,169.316956 
z"/>
<path fill="#EA9C85" opacity="1.000000" stroke="none" 
	d="
M24.008949,171.273071 
	C24.209393,171.209641 24.496765,171.399216 24.882675,171.833435 
	C24.686098,171.894073 24.390987,171.710068 24.008949,171.273071 
z"/>
<path fill="#FEF7F6" opacity="1.000000" stroke="none" 
	d="
M28.206482,50.209911 
	C26.073542,51.966927 25.541447,53.446735 27.702099,55.264034 
	C29.223993,56.544083 30.675388,57.979683 31.843321,59.576218 
	C32.365891,60.290558 32.116199,61.569836 32.216972,62.592739 
	C31.153496,62.507763 29.661638,62.838013 29.104015,62.262722 
	C27.154154,60.251068 25.526777,57.926834 23.776896,55.721344 
	C22.953131,55.607510 22.129366,55.493675 21.305603,55.379841 
	C19.793280,57.563625 18.441210,59.891296 16.680613,61.852165 
	C16.074749,62.526943 14.449493,62.286449 13.289923,62.464073 
	C13.484100,61.423584 13.607066,60.362030 13.905704,59.352440 
	C14.034406,58.917336 14.526667,58.589680 14.854039,58.213451 
	C19.560785,52.804340 19.491564,52.863895 14.825245,47.438190 
	C13.940401,46.409348 13.846893,44.699932 13.388258,43.304535 
	C14.774364,43.792870 16.400391,43.977821 17.490768,44.840111 
	C19.157518,46.158203 20.454552,47.943810 22.313072,49.972519 
	C24.684471,47.708530 26.572441,45.695148 28.699955,43.978672 
	C29.551706,43.291477 30.930977,43.258121 32.070129,42.927151 
	C31.911333,44.196236 32.080116,45.644253 31.509714,46.688507 
	C30.817581,47.955616 29.501490,48.881905 28.206482,50.209911 
z"/>
<path fill="#D8796E" opacity="1.000000" stroke="none" 
	d="
M39.779129,65.202255 
	C40.547562,68.119240 40.725483,71.226105 41.466091,74.192490 
	C42.363422,77.786591 40.708302,77.460007 38.119373,76.335434 
	C38.338989,74.875351 39.121590,73.720161 39.253738,72.494812 
	C39.509064,70.127411 39.397461,67.720444 39.779129,65.202255 
z"/>
<path fill="#D8796E" opacity="1.000000" stroke="none" 
	d="
M41.850330,61.212891 
	C41.972401,61.913280 41.790810,62.789181 41.328926,63.868317 
	C41.214645,63.177170 41.380657,62.282784 41.850330,61.212891 
z"/>
<path fill="#D8796E" opacity="1.000000" stroke="none" 
	d="
M40.838509,64.118973 
	C40.936878,64.365944 40.790039,64.707596 40.358299,65.073875 
	C40.246704,64.803558 40.420002,64.508614 40.838509,64.118973 
z"/>
<path fill="#D8796E" opacity="1.000000" stroke="none" 
	d="
M42.578686,60.196754 
	C42.777729,60.394466 42.695358,60.687515 42.282532,61.022942 
	C42.091820,60.800564 42.206886,60.542820 42.578686,60.196754 
z"/>
<path fill="#24323F" opacity="1.000000" stroke="none" 
	d="
M116.902145,138.754654 
	C114.207626,135.177856 111.946144,131.119659 109.190979,127.430138 
	C105.100327,121.952232 98.953392,119.820503 91.862076,118.118637 
	C87.290993,117.587540 85.678612,115.455849 86.024063,111.627251 
	C86.406723,107.386276 86.632072,103.131104 86.925926,98.882118 
	C87.460922,99.194092 87.995918,99.506073 88.530907,99.818047 
	C90.351326,97.825760 92.879921,96.095047 93.746040,93.750259 
	C94.334709,92.156609 93.159584,88.715027 91.740158,87.900887 
	C90.215073,87.026131 87.482170,88.257111 85.640617,88.517700 
	C81.922981,86.070610 77.996597,83.476204 74.055336,80.904625 
	C73.573921,80.590530 72.809807,80.541183 72.519981,80.128227 
	C69.846130,76.318291 67.247864,72.455315 64.722015,68.746391 
	C58.703514,72.534752 55.065754,77.834114 54.277088,84.912888 
	C53.101452,95.465034 54.042004,107.158195 65.933945,111.384979 
	C66.015366,112.154434 66.084465,112.591232 66.074951,113.413750 
	C66.628273,117.852837 63.200031,117.303375 61.030003,118.180298 
	C54.057217,118.905190 48.529926,122.316093 43.695145,127.622910 
	C41.457134,121.526833 42.801533,115.445770 44.395657,109.238617 
	C46.820374,99.797310 48.727749,90.224174 50.946278,80.728386 
	C51.886330,76.704742 52.524437,72.476074 54.297329,68.824982 
	C55.661301,66.016006 58.166348,63.069649 60.912834,61.783455 
	C65.166794,59.791317 70.000542,58.496090 74.691864,58.084782 
	C86.749535,57.027634 95.311966,64.701599 97.907494,77.881218 
	C99.154724,84.214493 99.919868,90.828461 102.405060,96.677231 
	C104.657753,101.978821 108.291702,107.106857 112.481567,111.084297 
	C120.727165,118.911873 122.787102,128.398422 116.902145,138.754654 
z"/>
<path fill="#B1A5EB" opacity="1.000000" stroke="none" 
	d="
M158.596924,35.936081 
	C158.959885,36.649025 158.978378,37.424103 158.795639,38.853195 
	C159.397842,43.677757 160.201279,47.848305 161.004700,52.018852 
	C161.004715,52.018852 161.001968,51.998817 160.985886,52.432049 
	C161.982910,58.285423 162.996017,63.705570 164.009125,69.125717 
	C164.009125,69.125717 163.991257,69.511101 163.986847,70.156982 
	C164.337036,74.845047 164.691620,78.887245 165.046188,82.929436 
	C155.432831,79.023651 145.827866,75.081062 134.583008,75.699532 
	C133.388641,73.172462 132.703674,71.034065 132.016571,68.467323 
	C131.642838,63.064247 131.271225,58.089504 130.899628,53.114765 
	C140.017227,47.409248 149.134842,41.703732 158.596924,35.936081 
z"/>
<path fill="#948BCE" opacity="1.000000" stroke="none" 
	d="
M135.202393,130.354507 
	C131.442001,119.551430 136.352020,110.507011 145.891678,109.966225 
	C152.223541,109.607292 157.657959,113.301086 159.584000,119.272919 
	C161.524948,125.291084 158.981476,132.065414 153.597336,135.217926 
	C147.907104,138.549667 142.081512,137.757339 137.321472,132.971970 
	C136.623352,132.270142 136.033218,131.460922 135.202393,130.354507 
M148.739731,115.476418 
	C143.248245,114.783409 141.831848,115.994743 142.793335,120.705315 
	C144.246674,120.120552 145.681946,119.543068 147.117203,118.965584 
	C147.538040,119.245117 147.958878,119.524651 148.379700,119.804184 
	C147.575409,121.431450 146.665649,123.017967 146.014130,124.704262 
	C145.716904,125.473526 145.929337,126.439690 145.910599,127.316551 
	C146.633545,127.280655 147.540207,127.514091 148.050293,127.166138 
	C152.042938,124.442612 152.578201,119.518509 148.739731,115.476418 
z"/>
<path fill="#736CBF" opacity="1.000000" stroke="none" 
	d="
M130.502884,53.080639 
	C131.271225,58.089504 131.642838,63.064247 132.007141,68.910889 
	C132.611374,74.256378 131.554871,77.201744 126.174599,77.223343 
	C123.804680,77.232849 121.438889,78.272644 119.071228,78.844681 
	C119.071228,78.844681 118.637207,78.896034 118.637207,78.896034 
	C118.637207,78.896034 118.225990,78.748016 117.972992,78.251350 
	C117.112099,77.521637 116.504204,77.288589 115.896301,77.055542 
	C115.896301,77.055542 115.979881,77.031036 115.974022,76.653374 
	C114.692123,71.238281 113.416084,66.200859 112.076797,61.092758 
	C112.013542,61.022087 111.874969,60.892544 111.874969,60.892544 
	C112.678146,57.060219 115.464531,55.623356 118.951401,55.016193 
	C122.671188,54.368477 126.388016,53.703789 130.502884,53.080639 
z"/>
<path fill="#746EC0" opacity="1.000000" stroke="none" 
	d="
M138.077057,87.897949 
	C141.907333,95.356583 141.764603,96.924164 137.322891,99.503265 
	C134.259964,101.281761 132.160843,100.794533 130.590988,97.482765 
	C127.910065,91.827080 125.051117,86.255783 122.588867,80.255562 
	C125.767586,79.348030 128.624390,78.833969 130.079178,78.572197 
	C130.930466,82.536453 131.663712,85.951012 132.396957,89.365555 
	C134.290329,88.876358 136.183685,88.387154 138.077057,87.897949 
z"/>
<path fill="#5F5BAB" opacity="1.000000" stroke="none" 
	d="
M138.009979,87.545532 
	C136.183685,88.387154 134.290329,88.876358 132.396957,89.365555 
	C131.663712,85.951012 130.930466,82.536453 130.079178,78.572197 
	C128.624390,78.833969 125.767586,79.348030 122.531425,79.910934 
	C121.344818,79.633118 120.537567,79.306465 119.400772,78.912247 
	C121.438889,78.272644 123.804680,77.232849 126.174599,77.223343 
	C131.554871,77.201744 132.611374,74.256378 132.009277,69.339218 
	C132.703674,71.034065 133.388641,73.172462 134.135864,75.704254 
	C135.446381,79.796143 136.694641,83.494629 138.009979,87.545532 
z"/>
<path fill="#9187CD" opacity="1.000000" stroke="none" 
	d="
M168.956451,71.556519 
	C168.328384,70.075890 167.491516,68.228676 167.151871,66.294167 
	C166.316010,61.533218 165.708801,56.732132 165.002258,51.537102 
	C171.668427,53.098389 174.042358,59.081429 170.813126,65.317398 
	C169.889557,67.100891 169.570267,69.197296 168.956451,71.556519 
z"/>
<path fill="#F9B59A" opacity="1.000000" stroke="none" 
	d="
M22.840960,105.882431 
	C24.546034,102.540749 29.109167,100.182480 26.258354,95.250916 
	C25.704788,94.293304 26.178759,92.741707 26.178759,90.062347 
	C32.296818,94.091774 30.472702,100.171120 32.499786,104.987999 
	C31.176414,106.203156 30.003361,107.350098 28.886988,107.297356 
	C26.853899,107.201302 24.854446,106.393349 22.840960,105.882431 
z"/>
<path fill="#7972C2" opacity="1.000000" stroke="none" 
	d="
M114.050858,75.810776 
	C107.149994,72.465332 106.147591,67.246750 111.560532,61.050766 
	C111.874969,60.892544 112.013542,61.022087 112.022736,61.498695 
	C112.704910,66.587128 113.377884,71.198952 114.050858,75.810776 
z"/>
<path fill="#ED9B80" opacity="1.000000" stroke="none" 
	d="
M22.633919,105.997147 
	C24.854446,106.393349 26.853899,107.201302 28.886988,107.297356 
	C30.003361,107.350098 31.176414,106.203156 32.556168,105.369034 
	C33.203278,106.840897 33.618141,108.540871 34.045948,110.621246 
	C31.763466,110.690285 29.403505,110.610413 27.193054,109.994217 
	C25.428713,109.502380 23.846518,108.357155 22.032967,107.187935 
	C21.987143,106.565033 22.168613,106.311020 22.633919,105.997147 
z"/>
<path fill="#9288D0" opacity="1.000000" stroke="none" 
	d="
M165.277710,83.181305 
	C164.691620,78.887245 164.337036,74.845047 163.981506,70.349792 
	C165.158493,74.745918 166.336426,79.595100 167.762314,85.465004 
	C168.761215,83.145706 169.385559,81.696053 170.342133,80.192627 
	C170.785828,80.936119 171.183975,81.833099 170.948593,82.509727 
	C170.470886,83.883080 169.650528,85.137245 168.971436,86.440552 
	C167.817368,85.438087 166.663300,84.435623 165.277710,83.181305 
z"/>
<path fill="#5E5AAA" opacity="1.000000" stroke="none" 
	d="
M114.302559,75.953156 
	C113.377884,71.198952 112.704910,66.587128 112.085991,61.569370 
	C113.416084,66.200859 114.692123,71.238281 115.953522,76.691795 
	C115.477341,76.770432 115.015800,76.432991 114.302559,75.953156 
z"/>
<path fill="#8D86CB" opacity="1.000000" stroke="none" 
	d="
M103.325241,39.919033 
	C103.188629,39.455296 103.343010,38.867210 103.779938,38.140076 
	C103.913742,38.598911 103.764992,39.196800 103.325241,39.919033 
z"/>
<path fill="#8D86CB" opacity="1.000000" stroke="none" 
	d="
M102.298615,41.894985 
	C102.184715,41.460915 102.339699,40.876446 102.772873,40.151482 
	C102.889870,40.588856 102.728683,41.166725 102.298615,41.894985 
z"/>
<path fill="#5E5AAA" opacity="1.000000" stroke="none" 
	d="
M116.038712,77.346825 
	C116.504204,77.288589 117.112099,77.521637 117.839539,78.078262 
	C117.366432,78.147255 116.773773,77.892677 116.038712,77.346825 
z"/>
<path fill="#8D86CB" opacity="1.000000" stroke="none" 
	d="
M101.277985,43.196793 
	C101.174721,42.977291 101.331375,42.609749 101.769196,42.126480 
	C101.879547,42.356750 101.708725,42.702747 101.277985,43.196793 
z"/>
<path fill="#F7F6FD" opacity="1.000000" stroke="none" 
	d="
M87.901169,25.167870 
	C86.045349,21.298550 84.256546,21.646576 81.996811,24.550819 
	C81.225845,25.541679 79.500282,25.789789 78.210884,26.377266 
	C78.346687,24.791561 77.955078,22.868628 78.714165,21.681444 
	C81.310165,17.621361 86.354881,16.861784 89.918800,19.637144 
	C93.193939,22.187620 93.301613,26.066334 90.223801,30.147312 
	C89.140579,31.583597 88.182350,33.129639 86.977531,34.453022 
	C86.234894,35.268742 85.134125,35.758408 84.194145,36.394459 
	C84.010689,34.946880 83.258186,33.248291 83.762833,32.104233 
	C84.797974,29.757515 86.506989,27.708046 87.901169,25.167870 
z"/>
<path fill="#9288D0" opacity="1.000000" stroke="none" 
	d="
M164.013474,68.669670 
	C162.996017,63.705570 161.982910,58.285423 160.977905,52.425861 
	C161.996613,57.395500 163.007217,62.804562 164.013474,68.669670 
z"/>
<path fill="#9288D0" opacity="1.000000" stroke="none" 
	d="
M161.008484,51.572433 
	C160.201279,47.848305 159.397842,43.677757 158.795563,39.239258 
	C159.668549,43.022877 160.340393,47.074448 161.008484,51.572433 
z"/>
<path fill="#F5B498" opacity="1.000000" stroke="none" 
	d="
M61.038589,118.561783 
	C63.200031,117.303375 66.628273,117.852837 66.493835,113.411850 
	C71.411743,112.998650 75.902466,113.129105 78.338799,108.024597 
	C79.088165,107.667725 79.541573,107.330231 80.199036,106.873093 
	C80.385994,106.409622 80.368912,106.065811 80.351830,105.722000 
	C80.237297,106.150726 80.122765,106.579460 79.707130,107.013786 
	C78.929222,107.335083 78.452408,107.650780 77.603256,108.015953 
	C73.461151,109.061058 69.691399,110.056694 65.921638,111.052338 
	C54.042004,107.158195 53.101452,95.465034 54.277088,84.912888 
	C55.065754,77.834114 58.703514,72.534752 64.722015,68.746391 
	C67.247864,72.455315 69.846130,76.318291 72.519981,80.128227 
	C72.809807,80.541183 73.573921,80.590530 74.055336,80.904625 
	C77.996597,83.476204 81.922981,86.070610 85.640617,88.517700 
	C87.482170,88.257111 90.215073,87.026131 91.740158,87.900887 
	C93.159584,88.715027 94.334709,92.156609 93.746040,93.750259 
	C92.879921,96.095047 90.351326,97.825760 88.530907,99.818047 
	C87.995918,99.506073 87.460922,99.194092 86.925926,98.882118 
	C86.632072,103.131104 86.406723,107.386276 86.024063,111.627251 
	C85.678612,115.455849 87.290993,117.587540 91.481918,118.139557 
	C88.332031,124.060867 83.807350,128.831604 77.087959,130.753998 
	C68.400764,133.239365 62.943153,129.097992 61.038589,118.561783 
z"/>
<path fill="#ED9B80" opacity="1.000000" stroke="none" 
	d="
M26.734459,112.339500 
	C27.000704,112.355087 27.146687,112.497780 27.292669,112.640480 
	C27.066513,112.582520 26.840355,112.524567 26.734459,112.339500 
z"/>
<path fill="#EA9176" opacity="1.000000" stroke="none" 
	d="
M78.042847,108.043983 
	C75.902466,113.129105 71.411743,112.998650 66.572449,113.026123 
	C66.084465,112.591232 66.015366,112.154434 65.933945,111.384987 
	C69.691399,110.056694 73.461151,109.061058 77.619179,108.036102 
	C78.007446,108.006775 78.042847,108.043983 78.042847,108.043983 
z"/>
<path fill="#DFD8F8" opacity="1.000000" stroke="none" 
	d="
M149.053894,115.703995 
	C152.578201,119.518509 152.042938,124.442612 148.050293,127.166138 
	C147.540207,127.514091 146.633545,127.280655 145.910599,127.316551 
	C145.929337,126.439690 145.716904,125.473526 146.014130,124.704262 
	C146.665649,123.017967 147.575409,121.431450 148.379700,119.804184 
	C147.958878,119.524651 147.538040,119.245117 147.117203,118.965584 
	C145.681946,119.543068 144.246674,120.120552 142.793335,120.705315 
	C141.831848,115.994743 143.248245,114.783409 149.053894,115.703995 
z"/>
<path fill="#EA9176" opacity="1.000000" stroke="none" 
	d="
M80.008232,107.008186 
	C80.122765,106.579460 80.237297,106.150726 80.351830,105.722000 
	C80.368912,106.065811 80.385994,106.409622 80.201706,106.876892 
	C80.000336,107.000359 80.008232,107.008186 80.008232,107.008186 
z"/>
<path fill="#EA9176" opacity="1.000000" stroke="none" 
	d="
M77.991516,107.986633 
	C78.452408,107.650780 78.929222,107.335083 79.707130,107.013786 
	C80.008232,107.008186 80.000336,107.000359 79.997665,106.996552 
	C79.541573,107.330231 79.088165,107.667725 78.338799,108.024597 
	C78.042847,108.043983 78.007446,108.006775 77.991516,107.986633 
z"/>
</svg>